<?xml version="1.0" encoding="UTF-8" standalone="no"?>
<!-- Created with Inkscape (http://www.inkscape.org/) -->

<svg
   width="69.697037mm"
   height="55.915504mm"
   viewBox="0 0 69.697037 55.915504"
   version="1.1"
   id="svg2082"
   xmlns="http://www.w3.org/2000/svg"
   xmlns:svg="http://www.w3.org/2000/svg">
  <defs
     id="defs2079" />
  <g
     id="layer1"
     transform="translate(-2.3168178,-9.4458628)">
    <path
       id="path792"
       style="opacity:0.9;fill:#000000;fill-opacity:0.992203;fill-rule:evenodd;stroke:#000000;stroke-width:0.0438218"
       d="m 14.379085,9.4680249 0.04928,0.8281141 c 0.02715,0.455565 0.08952,2.340479 0.138418,4.188774 0.04891,1.848293 0.103635,3.448641 0.121824,3.556259 0.03182,0.188093 0.114607,0.20018 2.134173,0.310348 1.1555,0.06303 2.440016,0.140935 2.854667,0.173211 l 0.753962,0.05878 v 1.961913 1.961913 l -0.305494,0.05317 c -0.168103,0.02937 -1.708715,0.235375 -3.423353,0.457437 l -3.117317,0.40364 v 3.436225 3.435913 H 11.180653 8.7763256 v 2.071997 2.072307 l -0.264797,0.05473 C 8.2411001,34.548826 2.4477407,35.5003 2.3767531,35.5003 c -0.057619,0 -0.04746,11.354461 0.014968,16.78712 l 0.054087,4.701252 4.3267118,3.13e-4 h 4.3267131 l -0.02813,-6.389822 -0.02783,-6.389826 h 1.384496 1.384765 l 0.02891,6.618388 c 0.0159,3.64019 0.05629,6.6505 0.0897,6.689289 0.03342,0.03882 1.874013,0.351937 4.090297,0.695954 2.216284,0.344011 4.04518,0.646043 4.064325,0.67107 0.01916,0.02504 0.129372,1.423727 0.24472,3.108151 0.115341,1.684436 0.233393,3.090002 0.262382,3.1237 0.02896,0.03369 2.479531,0.08472 5.445608,0.113194 2.966081,0.02846 5.962808,0.06033 6.659281,0.0709 l 1.266154,0.01925 -0.03295,-3.857588 c -0.01819,-2.121624 -0.06546,-3.881377 -0.104954,-3.910455 -0.03948,-0.02906 -1.16278,-0.105143 -2.496428,-0.169168 -1.333642,-0.06403 -3.561984,-0.177953 -4.951623,-0.253125 -1.389635,-0.07516 -2.646768,-0.137426 -2.793622,-0.138383 l -0.266936,-0.0018 0.02249,-1.443838 0.02249,-1.443525 1.100419,-0.0625 c 0.605166,-0.03436 2.934104,-0.131276 5.175453,-0.215192 2.241355,-0.08391 4.34094,-0.176534 4.665941,-0.205858 l 0.522901,-0.04694 v 0.03141 h 0.282466 v 0.03141 h 0.114326 c 0.06293,0 0.118281,-0.0075 0.123161,-0.01679 8.8e-5,-1.63e-4 -6.2e-5,-0.01348 0,-0.01462 h 0.21098 v -0.333672 c 0.0036,0.06554 0.01384,0.368593 0.01554,0.370055 0.0079,0.0069 2.600174,0.113826 5.76047,0.237583 l 5.746013,0.225139 0.02249,1.436375 0.02249,1.436684 -0.429992,0.05134 c -0.236488,0.02828 -2.263956,0.138677 -4.505299,0.245045 -2.241346,0.106373 -4.43263,0.219433 -4.869695,0.251574 l -0.794655,0.05843 v 3.879361 3.879041 l 6.662763,-0.06873 c 3.6646,-0.03785 6.681311,-0.08859 6.703724,-0.112572 0.02244,-0.02401 0.13512,-1.424335 0.250607,-3.111882 0.115487,-1.687554 0.231373,-3.092963 0.257299,-3.123075 0.02591,-0.03009 1.776091,0.01757 3.889223,0.105728 2.113138,0.08816 3.85522,0.144388 3.871286,0.125005 0.01606,-0.01937 0.137186,-3.347798 0.269082,-7.396428 0.131901,-4.048631 0.254648,-7.378437 0.272828,-7.399546 0.01819,-0.02112 0.63819,-0.04995 1.3778,-0.06407 l 1.344602,-0.02581 0.02114,0.231053 c 0.01155,0.126985 0.239067,3.22836 0.505497,6.892043 0.266429,3.663664 0.500274,6.679799 0.519687,6.702347 0.03907,0.04538 6.58752,0.429888 6.614301,0.388403 0.03222,-0.04995 0.934831,-21.786739 0.906039,-21.820181 -0.01601,-0.01857 -1.436754,-0.227522 -3.156945,-0.46459 -1.72018,-0.237064 -3.134157,-0.438156 -3.142218,-0.446865 -0.0081,-0.0087 0.0689,-1.208213 0.171085,-2.665329 0.102181,-1.457118 0.182246,-2.653784 0.17778,-2.65942 -0.0047,-0.0056 -1.249278,-0.09824 -2.766312,-0.205862 -1.517039,-0.107616 -2.776871,-0.21719 -2.799513,-0.243491 -0.02264,-0.0263 -10e-4,-1.573789 0.04819,-3.438712 0.04928,-1.864925 0.08951,-3.839403 0.08942,-4.387795 l -2.78e-4,-0.99727 -5.480948,-0.366635 c -3.433513,-0.229682 -5.515813,-0.405327 -5.573588,-0.470188 -0.05072,-0.05695 -0.111187,-0.454866 -0.134673,-0.884399 l -0.04285,-0.780847 0.338696,3.1e-4 c 0.601161,7.83e-4 7.10278,-0.300651 7.129168,-0.330561 0.03109,-0.03525 0.583752,-8.128693 0.557173,-8.159557 -0.01039,-0.01204 -2.153779,-0.05169 -4.763134,-0.08831 l -4.744389,-0.06686 0.0059,1.12758 c 0.0031,0.620106 0.03471,2.085967 0.07015,3.257417 0.03544,1.171449 0.05963,2.13797 0.05355,2.147874 -0.0061,0.0099 -1.70672,0.07117 -3.778911,0.135894 l -3.767399,0.117541 v 1.008789 c 0,0.554791 -0.0243,1.84632 -0.05382,2.869946 l -0.05355,1.86116 h -1.698844 l -2.038323,-0.159838 0.03508,1.154632 c -0.01008,-0.364125 -0.02658,-0.734548 -0.04098,-1.16676 l -3.365783,-0.03234 c -1.851237,-0.01782 -3.389141,-0.05943 -3.417461,-0.09236 -0.03694,-0.04297 -0.350638,-4.653169 -0.367876,-5.406844 -0.001,-0.03904 -1.452487,-0.07121 -3.225759,-0.07121 h -3.224148 l 0.0581,-3.644575 0.0581,-3.6442631 h -4.383471 z m 2.384779,2.0558261 1.854112,0.0681 c 1.019817,0.03742 1.878102,0.09659 1.907396,0.131541 0.02927,0.03495 0.06687,0.942399 0.08327,2.016332 l 0.02974,1.952584 -0.531464,0.05816 v 3.1e-4 c -0.292236,0.03207 -1.163852,0.05845 -1.937114,0.05878 l -1.405915,6.02e-4 v -2.143209 z m 33.745946,0.50004 c 0.251419,0 3.855462,0.38202 3.951609,0.418878 0.0858,0.03289 -0.06008,3.324705 -0.152077,3.43156 -0.02461,0.02858 -0.902827,0.0746 -1.951574,0.102312 l -1.906857,0.05038 -0.05329,-0.79453 c -0.02927,-0.43703 -0.05354,-1.337899 -0.05382,-2.001717 -4.15e-4,-1.15238 0.0071,-1.206877 0.165998,-1.206877 z m -27.551734,7.004923 h 2.078213 2.078486 l 0.0061,0.213016 c 0.0036,0.117147 0.08596,1.405918 0.183402,2.863728 l 0.177247,2.650401 h 4.577851 c 2.517814,0 4.593622,-0.02124 4.612927,-0.04726 0.01342,-0.411678 0.01068,-0.774696 10e-4,-1.144372 l 0.0343,1.130689 c 1.200638,0.05351 1.459871,-0.108894 3.439682,0.02302 1.398759,-0.0453 2.553581,-0.09799 2.566042,-0.11692 0.01248,-0.01893 0.08725,-1.269898 0.166267,-2.779766 0.07901,-1.509869 0.149356,-2.751065 0.156361,-2.758309 0.007,-0.0073 0.728041,0.02251 1.60217,0.06624 0.874118,0.04372 1.781826,0.0817 2.017168,0.08428 l 0.427852,0.0047 v 1.988034 1.987725 l 0.2241,-0.0025 c 0.325281,-0.0037 10.408266,0.502033 10.433643,0.523364 0.01176,0.0099 0.0618,3.464368 0.111379,7.676618 l 0.09023,7.658583 0.06694,0.07307 0.0026,0.2693 c -0.01814,-0.01749 -0.09227,-0.09402 -0.0929,-0.09329 -5.18e-4,7.82e-4 -0.001,0.03329 -0.001,0.08366 L 56.67849,38.114064 c -0.778859,-0.797196 -1.443877,-1.457678 -1.477938,-1.46747 -0.001,-3.19e-4 -0.0021,-1.59e-4 -0.0031,0 -0.03555,0.0074 -0.108168,0.265393 -0.164393,0.588046 l -0.105757,0.606391 0.468814,0.490401 c 0.257798,0.269724 0.963814,1.007884 1.56897,1.64068 0.413076,0.431927 0.774852,0.806136 0.969228,1.003195 v 0.0091 l 0.09477,0.09921 0.0026,0.294491 -0.02679,-0.02456 V 42.3555 c -0.01482,0.188508 0.0042,0.402387 0.04259,0.628157 l 0.0052,0.503773 c -0.710057,-0.584493 -1.521266,-1.34025 -2.229759,-1.895679 -1.093316,-0.980943 -1.992869,-1.77735 -1.999231,-1.769421 -0.01072,0.01332 -0.362928,1.429864 -0.366269,1.47307 -10e-4,0.01063 0.980756,0.915663 2.181296,2.011357 1.273354,1.162145 1.968382,1.785201 2.360681,2.123303 -0.0098,0.312496 0.0059,0.819037 0.0059,1.484577 v 1.219851 l 0.04928,0.0535 v 0.290448 c -0.0026,-0.0042 -0.0047,-0.009 -0.0075,-0.01246 -0.01715,-0.02028 -0.802169,-0.811864 -1.744341,-1.758845 l -1.71301,-1.721847 -0.588498,0.478277 c -0.555122,0.451173 -0.586954,0.479968 -0.563329,0.506565 0.01378,0.01553 1.052375,1.079326 2.308203,2.364004 1.255838,1.284659 2.287747,2.335695 2.29241,2.335695 0.0026,0 0.01047,-0.01003 0.01606,-0.01523 v 0.844595 c -0.0973,-0.07509 -4.644615,-3.158013 -4.668619,-3.165053 -0.01217,-0.0036 -0.117343,0.231018 -0.297459,0.66392 -0.273165,0.656496 -0.27775,0.669782 -0.248736,0.694395 0.01627,0.01378 1.213343,0.843108 2.660286,1.842814 1.384346,0.95644 2.458776,1.698031 2.554528,1.762894 v 1.793055 l -0.28407,0.05657 c -0.286143,-0.189982 -0.727218,-0.476922 -1.674463,-1.088086 -1.152287,-0.743463 -2.096118,-1.349783 -2.097491,-1.347436 -0.05051,0.08702 -0.757502,1.557181 -0.754226,1.568536 0.0026,0.0092 0.510703,0.336026 1.128796,0.726427 0.536987,0.339172 0.87988,0.548153 1.003232,0.617897 l -0.133337,0.02642 -0.03052,-0.01896 -1.762014,0.143045 c -0.968959,0.07879 -1.771256,0.135331 -1.782893,0.125318 -0.01165,-0.01003 0.02098,-0.984933 0.0723,-2.166221 0.05129,-1.181282 0.07526,-2.168369 0.05355,-2.193582 -0.02171,-0.02521 -3.024804,-0.320777 -6.673741,-0.656773 -3.648933,-0.335995 -6.869325,-0.637545 -7.156209,-0.670143 l -0.521563,-0.0591 5.18e-4,0.01366 h -0.16258 c -4.2e-4,-0.0086 -0.0016,-0.04236 -0.0016,-0.0426 -0.0016,-0.0012 -0.04425,-0.0068 -0.09506,-0.01276 l -0.09237,-0.01063 5.19e-4,0.06593 h -0.263681 v 0.006 l -0.156092,0.0036 c -0.51458,0.01183 -13.953862,1.284552 -13.988456,1.324732 -0.02078,0.02413 10e-4,0.992652 0.04845,2.152536 0.0473,1.15989 0.06484,2.133509 0.03912,2.163423 -0.02575,0.02991 -1.474071,-0.06498 -3.218526,-0.210835 l -3.171673,-0.265257 -0.05221,-4.217697 c -0.0287,-2.319761 -0.0762,-9.037772 -0.105493,-14.928763 l -0.05328,-10.71138 0.684618,-0.05878 c 0.957442,-0.08256 5.29951,-0.338931 5.740031,-0.338931 h 0.363859 v -3.029476 z m -4.767952,8.709042 0.01954,2.106204 c 0.01077,1.158475 0.04217,2.675478 0.06988,3.371232 l 0.05062,1.265338 0.296661,-0.05721 c 0.163236,-0.03135 0.471151,-0.0572 0.684079,-0.05785 l 0.38689,-0.0013 v -3.31304 -3.313392 h -0.753698 z m 32.251684,2.183324 c -0.922945,0.01212 -8.10279,0.360679 -8.135612,0.399287 -0.0097,0.01135 0.0031,1.976078 0.02891,4.366027 l 0.04632,4.345501 c 3.02971,-0.09552 5.40997,-0.16442 8.32865,-0.24691 l -0.06961,-4.411428 c -0.03829,-2.426184 -0.08392,-4.428821 -0.101475,-4.4503 -0.0021,-0.0024 -0.03565,-0.0027 -0.09718,-0.0019 z m -20.067006,0.07899 c -2.862214,0.113324 -5.92799,0.171014 -8.313397,0.220788 v 4.533018 4.532707 h 4.156699 4.156698 v -4.643102 z m 14.426215,1.971864 c 1.021304,0.150889 1.905524,0.120345 2.926953,0.120345 l 0.04016,0.30755 c 0.02218,0.169211 0.05815,1.085122 0.08006,2.035302 l 0.0399,1.727754 -0.952627,-0.01897 c -0.523911,-0.01039 -1.21854,-0.03335 -1.543536,-0.05131 l -0.590902,-0.03265 v -2.044017 z m 15.557155,0.0031 1.54996,0.03857 c 0.852487,0.0213 1.563882,0.05832 1.581015,0.08241 0.02487,0.03497 -0.392625,9.637245 -0.422764,9.723111 -0.0047,0.01299 -0.109125,0.01654 -0.232399,0.0081 -1.192228,-0.08145 -1.728071,-0.137521 -1.76951,-0.185651 -0.02705,-0.03147 -0.1749,-1.969371 -0.32852,-4.306317 -0.153626,-2.33694 -0.301386,-4.499105 -0.328519,-4.804805 z m -46.997313,0.118461 c 0.03362,-4.53e-4 0.06132,2.144399 0.06132,4.766245 v 4.76687 l -0.500942,0.06095 c -0.275542,0.03345 -0.734227,0.06064 -1.019029,0.06064 h -0.517812 l -0.0083,-0.875695 c -0.0047,-0.481593 -0.03357,-2.579485 -0.064,-4.662068 -0.03041,-2.082585 -0.04974,-3.798505 -0.04311,-3.813121 0.01047,-0.02311 1.928021,-0.301621 2.091869,-0.303818 z m 14.405868,0.472364 v 1.977773 c 0,1.716161 -0.01689,1.985444 -0.128787,2.035302 -0.0709,0.0316 -0.782324,0.05753 -1.580746,0.05753 -1.248559,0 -1.458416,-0.02079 -1.500968,-0.149577 -0.0272,-0.08235 -0.04953,-0.970756 -0.04953,-1.974041 v -1.824148 l 0.672298,-0.06064 c 0.369824,-0.03343 1.1033,-0.06125 1.630014,-0.06157 z M 8.5546226,37.412435 c 0.06507,-0.001 0.103386,0.0017 0.108969,0.0081 0.05872,0.06993 0.212141,16.996962 0.15502,17.104311 -0.02051,0.03857 -0.6526248,0.09862 -1.4048412,0.133718 -0.7522165,0.03508 -1.5743786,0.08889 -1.826803,0.119416 l -0.4589083,0.05566 -0.049008,-3.442442 c -0.026945,-1.893369 -0.07051,-5.726207 -0.096925,-8.517487 l -0.047928,-5.075036 0.3927758,-0.05691 c 1.0066579,-0.145987 2.7721107,-0.322274 3.2276357,-0.329299 z m 57.2223814,0.0099 c 0.01446,-0.01679 0.861015,0.06274 1.881158,0.176632 l 1.854916,0.207106 -0.05891,8.431654 c -0.03238,4.637452 -0.07496,8.463822 -0.09452,8.50287 -0.03995,0.07971 -0.69496,0.07048 -2.022789,-0.02799 -0.493104,-0.03658 -1.076659,-0.07173 -1.296945,-0.07836 l -0.400542,-0.01216 0.0557,-8.584657 c 0.03067,-4.72153 0.06747,-8.59833 0.08193,-8.615124 z m -7.777907,8.007487 c 0.02663,0.01799 0.04772,0.02636 0.07229,0.04074 l 2.69e-4,0.01432 c -0.02596,-0.02046 -0.04482,-0.03207 -0.07256,-0.05476 z m 1.226523,4.028935 0.02223,0.02425 -0.02223,0.02082 z m -33.964693,9.612724 0.499072,0.0024 c 0.27445,0.0012 1.89262,0.06435 3.596044,0.139934 1.70343,0.07557 3.344868,0.138515 3.64745,0.139628 l 0.550211,0.0024 v 1.84592 1.845925 l -0.957716,-0.01462 c -2.224288,-0.03383 -7.354252,-0.235928 -7.402265,-0.291694 -0.02865,-0.03328 -0.02528,-0.872709 0.0075,-1.8652 z m 23.909639,0.02672 c 0.02083,0.02521 0.186511,3.707275 0.167605,3.725117 -0.03772,0.03563 -8.386446,0.265439 -8.415403,0.231673 -0.0186,-0.02167 -0.03373,-0.837704 -0.03373,-1.81358 v -1.774394 l 0.672302,-0.05536 c 0.775439,-0.0637 7.583864,-0.344168 7.60923,-0.31346 z" />
  </g>
</svg>
